<svg width="250" height="44" viewBox="0 0 250 44" fill="none" xmlns="http://www.w3.org/2000/svg">
<g clip-path="url(#clip0)">
<path d="M0 36.639V0H0.629739C5.08315 0 9.53673 0 13.9905 0C20.0492 0 24.5718 2.59584 27.7002 7.49827C29.1853 9.8243 30.033 12.3807 30.4011 15.0788C30.8546 18.3993 30.6674 21.6789 29.6326 24.8902C28.7558 27.6117 27.3715 30.0669 25.2956 32.1251C22.292 35.1045 18.6223 36.638 14.2963 36.656C9.68684 36.6764 5.07691 36.661 0.467494 36.6605C0.33125 36.662 0.195006 36.649 0 36.639ZM4.06548 3.59079C3.96148 4.12442 3.98072 32.7231 4.08628 33.0966C4.16792 33.1021 4.25321 33.1131 4.33901 33.1131C7.23237 33.1131 10.1257 33.126 13.0191 33.0981C13.7986 33.0913 14.5757 33.0152 15.3405 32.8707C20.1246 31.955 23.4364 29.3235 25.2759 24.9759C26.0689 23.0898 26.4059 21.1138 26.4688 19.091C26.5416 16.7361 26.3487 14.4085 25.5822 12.1538C24.7579 9.72905 23.4116 7.63592 21.266 6.07293C19.0508 4.46056 16.499 3.69901 13.7674 3.60725C10.6354 3.50252 7.49706 3.56286 4.36137 3.55339C4.26195 3.55925 4.16308 3.57175 4.06548 3.59079Z" fill="white"/>
<path d="M52.3674 34.1913C52.2473 34.2781 52.2114 34.291 52.1947 34.3175C50.2811 37.1657 45.2926 37.5093 42.6602 34.5269C41.68 33.4158 41.1205 32.1246 40.913 30.6983C40.6665 29.0061 40.8246 27.3424 41.5141 25.7564C42.4049 23.7072 43.9161 22.2833 46.1896 21.6983C47.3184 21.4065 48.5099 21.4237 49.629 21.7482C50.7663 22.0689 51.6779 22.6993 52.3419 23.6483C52.4197 23.774 52.53 23.8783 52.6622 23.9511C52.7059 23.2653 52.7491 22.5796 52.7938 21.8704H55.1916C55.2133 21.9763 55.2257 22.0837 55.2285 22.1916C55.0257 26.2457 55.162 30.3018 55.1245 34.3569C55.1146 35.5219 55.0533 36.6799 54.8198 37.8275C54.2577 40.5944 52.5218 42.2631 49.6716 42.8521C47.5952 43.2815 45.5365 43.1558 43.5245 42.493C43.0705 42.3434 42.6405 42.1265 42.1418 41.9155C42.3862 41.1983 42.6136 40.5305 42.8241 39.9121C43.6686 40.2004 44.4491 40.5196 45.2603 40.731C46.3171 41.0105 47.4245 41.0671 48.5063 40.8971C50.2743 40.6183 51.4782 39.7057 52.0377 38.0544C52.4579 36.8126 52.382 35.5388 52.3674 34.1913ZM52.3185 28.9936H52.332C52.332 28.4789 52.3409 27.9643 52.332 27.4476C52.3223 26.8687 52.1786 26.2991 51.9114 25.78C51.6442 25.2608 51.2601 24.8051 50.7869 24.4456C50.3137 24.0861 49.7632 23.8319 49.1751 23.7012C48.587 23.5706 47.976 23.5668 47.3862 23.6902C45.8292 24.0089 44.8318 24.956 44.226 26.315C43.654 27.6002 43.5651 28.9512 43.7408 30.3227C43.8336 31.1173 44.1007 31.884 44.5245 32.5724C45.5209 34.1684 47.2099 34.7808 49.018 34.4676C50.8261 34.1544 52.2005 32.6114 52.3138 30.8329C52.3508 30.2225 52.3185 29.6076 52.3185 28.9936Z" fill="white"/>
<path d="M84.6464 27.2059C84.7202 26.3486 84.6053 25.5561 84.155 24.8339C83.6422 24.0111 82.8305 23.637 81.8731 23.5373C80.3864 23.3837 78.9782 23.6639 77.648 24.3123C77.5092 24.3801 77.3719 24.4504 77.232 24.5173C77.1911 24.5218 77.1497 24.5218 77.1088 24.5173C76.9127 23.9687 76.7089 23.4021 76.5029 22.8271C77.2044 22.3553 77.9449 22.079 78.7109 21.8735C80.1295 21.491 81.5757 21.3718 83.0317 21.6157C85.3661 22.0062 86.7987 23.3522 87.2439 25.5845C87.3717 26.2372 87.4401 26.8994 87.4482 27.5634C87.4763 29.3244 87.4607 31.0869 87.4576 32.8499C87.4576 34.0309 87.4732 35.2098 87.6656 36.3798C87.6707 36.4606 87.6707 36.5415 87.6656 36.6222C87.2553 36.7005 86.844 36.6521 86.4384 36.6606C86.0411 36.6686 85.6432 36.6606 85.1732 36.6606C85.0879 36.0502 85.0052 35.4562 84.9225 34.8617L84.8024 34.7894C84.7301 34.8961 84.6724 35.0158 84.584 35.1076C82.8856 36.8596 80.7998 37.3813 78.4312 36.7653C76.6345 36.298 75.4546 34.7385 75.3885 32.9551C75.3147 30.9677 76.1998 29.4985 77.9886 28.5165C79.102 27.9051 80.3198 27.5814 81.5819 27.4303C82.4738 27.3236 83.376 27.2926 84.2735 27.2278L84.6464 27.2059ZM84.7353 29.117C84.3 29.117 83.921 29.0965 83.5445 29.1214C82.9589 29.1608 82.3729 29.2137 81.792 29.2915C81.0694 29.3812 80.3711 29.6012 79.7338 29.9398C78.5409 30.5882 77.9429 31.6799 78.2876 33.204C78.4988 34.1351 79.1249 34.7156 80.0921 34.9206C80.4468 34.9921 80.8097 35.0187 81.1716 34.9999C82.9917 34.9151 84.5606 33.5591 84.7202 31.8689C84.8039 30.9817 84.7353 30.082 84.7353 29.117Z" fill="white"/>
<path d="M64.6438 21.8554H66.9766V18.303L69.7587 17.5903V21.8339H73.7275V23.8912H69.7998C69.7837 24.0807 69.7603 24.2233 69.7603 24.3655C69.7603 26.8591 69.7514 29.3527 69.766 31.8463C69.7633 32.3275 69.8126 32.8076 69.9131 33.2791C70.1336 34.2541 70.753 34.7254 71.7899 34.7383C72.2205 34.7438 72.6521 34.683 73.0832 34.6516C73.2007 34.6426 73.3182 34.6306 73.4851 34.6157C73.5278 35.2795 73.5683 35.9188 73.6125 36.6105C73.261 36.6938 72.9334 36.7956 72.597 36.8454C71.703 36.9781 70.806 37.0305 69.9126 36.826C68.5606 36.5168 67.6973 35.7123 67.3058 34.4431C67.0582 33.6397 67.0021 32.8093 67.001 31.9769C66.9969 29.4833 66.9969 26.9897 67.001 24.4961V23.9106H64.6454L64.6438 21.8554Z" fill="white"/>
<path d="M94.4928 36.6275H91.8012C91.6972 36.249 91.6483 16.0568 91.756 14.9331C92.6514 14.9052 93.5552 14.9177 94.4928 14.9272V36.6275Z" fill="white"/>
<path d="M34.7827 21.8589H37.48C37.584 22.222 37.6189 35.8994 37.519 36.6265H34.7827V21.8589Z" fill="white"/>
<path d="M59.3219 21.844H61.9864C62.0946 22.217 62.1263 35.9508 62.0234 36.6271H59.3531C59.2501 36.267 59.2132 22.6065 59.3219 21.844Z" fill="white"/>
<path d="M37.8775 17.6872C37.8717 18.6483 37.1578 19.2971 36.1094 19.2961C35.1131 19.2961 34.4012 18.5849 34.4168 17.608C34.4324 16.6544 35.1734 15.9587 36.1723 15.9622C37.1916 15.9627 37.8832 16.6619 37.8775 17.6872Z" fill="white"/>
<path d="M60.6772 15.959C61.6902 15.9685 62.4073 16.6987 62.386 17.6996C62.3662 18.6472 61.6221 19.3065 60.5852 19.2955C59.6185 19.2845 58.8899 18.5738 58.8915 17.6422C58.893 16.6812 59.6684 15.9511 60.6772 15.959Z" fill="white"/>
<g clip-path="url(#clip1)">
<path d="M0 36.639V0H0.629739C5.08315 0 9.53673 0 13.9905 0C20.0492 0 24.5718 2.59584 27.7002 7.49827C29.1853 9.8243 30.033 12.3807 30.4011 15.0788C30.8546 18.3993 30.6674 21.6789 29.6326 24.8902C28.7558 27.6117 27.3715 30.0669 25.2956 32.1251C22.292 35.1045 18.6223 36.638 14.2963 36.656C9.68684 36.6764 5.07691 36.661 0.467494 36.6605C0.33125 36.662 0.195006 36.649 0 36.639ZM4.06548 3.59079C3.96148 4.12442 3.98072 32.7231 4.08628 33.0966C4.16792 33.1021 4.25321 33.1131 4.33901 33.1131C7.23237 33.1131 10.1257 33.126 13.0191 33.0981C13.7986 33.0913 14.5757 33.0152 15.3405 32.8707C20.1246 31.955 23.4364 29.3235 25.2759 24.9759C26.0689 23.0898 26.4059 21.1138 26.4688 19.091C26.5416 16.7361 26.3487 14.4085 25.5822 12.1538C24.7579 9.72905 23.4116 7.63592 21.266 6.07293C19.0508 4.46056 16.499 3.69901 13.7674 3.60725C10.6354 3.50252 7.49706 3.56286 4.36137 3.55339C4.26195 3.55925 4.16308 3.57175 4.06548 3.59079Z" fill="white"/>
<path d="M52.3674 34.1913C52.2473 34.2781 52.2114 34.291 52.1947 34.3175C50.2811 37.1657 45.2926 37.5093 42.6602 34.5269C41.68 33.4158 41.1205 32.1246 40.913 30.6983C40.6665 29.0061 40.8246 27.3424 41.5141 25.7564C42.4049 23.7072 43.9161 22.2833 46.1896 21.6983C47.3184 21.4065 48.5099 21.4237 49.629 21.7482C50.7663 22.0689 51.6779 22.6993 52.3419 23.6483C52.4197 23.774 52.53 23.8783 52.6622 23.9511C52.7059 23.2653 52.7491 22.5796 52.7938 21.8704H55.1916C55.2133 21.9763 55.2257 22.0837 55.2285 22.1916C55.0257 26.2457 55.162 30.3018 55.1245 34.3569C55.1146 35.5219 55.0533 36.6799 54.8198 37.8275C54.2577 40.5944 52.5218 42.2631 49.6716 42.8521C47.5952 43.2815 45.5365 43.1558 43.5245 42.493C43.0705 42.3434 42.6405 42.1265 42.1418 41.9155C42.3862 41.1983 42.6136 40.5305 42.8241 39.9121C43.6686 40.2004 44.4491 40.5196 45.2603 40.731C46.3171 41.0105 47.4245 41.0671 48.5063 40.8971C50.2743 40.6183 51.4782 39.7057 52.0377 38.0544C52.4579 36.8126 52.382 35.5388 52.3674 34.1913ZM52.3185 28.9936H52.332C52.332 28.4789 52.3409 27.9643 52.332 27.4476C52.3223 26.8687 52.1786 26.2991 51.9114 25.78C51.6442 25.2608 51.2601 24.8051 50.7869 24.4456C50.3137 24.0861 49.7632 23.8319 49.1751 23.7012C48.587 23.5706 47.976 23.5668 47.3862 23.6902C45.8292 24.0089 44.8318 24.956 44.226 26.315C43.654 27.6002 43.5651 28.9512 43.7408 30.3227C43.8336 31.1173 44.1007 31.884 44.5245 32.5724C45.5209 34.1684 47.2099 34.7808 49.018 34.4676C50.8261 34.1544 52.2005 32.6114 52.3138 30.8329C52.3508 30.2225 52.3185 29.6076 52.3185 28.9936Z" fill="white"/>
<path d="M84.6464 27.2059C84.7202 26.3486 84.6053 25.5561 84.155 24.8339C83.6422 24.0111 82.8305 23.637 81.8731 23.5373C80.3864 23.3837 78.9782 23.6639 77.648 24.3123C77.5092 24.3801 77.3719 24.4504 77.232 24.5173C77.1911 24.5218 77.1497 24.5218 77.1088 24.5173C76.9127 23.9687 76.7089 23.4021 76.5029 22.8271C77.2044 22.3553 77.9449 22.079 78.7109 21.8735C80.1295 21.491 81.5757 21.3718 83.0317 21.6157C85.3661 22.0062 86.7987 23.3522 87.2439 25.5845C87.3717 26.2372 87.4401 26.8994 87.4482 27.5634C87.4763 29.3244 87.4607 31.0869 87.4576 32.8499C87.4576 34.0309 87.4732 35.2098 87.6656 36.3798C87.6707 36.4606 87.6707 36.5415 87.6656 36.6222C87.2553 36.7005 86.844 36.6521 86.4384 36.6606C86.0411 36.6686 85.6432 36.6606 85.1732 36.6606C85.0879 36.0502 85.0052 35.4562 84.9225 34.8617L84.8024 34.7894C84.7301 34.8961 84.6724 35.0158 84.584 35.1076C82.8856 36.8596 80.7998 37.3813 78.4312 36.7653C76.6345 36.298 75.4546 34.7385 75.3885 32.9551C75.3147 30.9677 76.1998 29.4985 77.9886 28.5165C79.102 27.9051 80.3198 27.5814 81.5819 27.4303C82.4738 27.3236 83.376 27.2926 84.2735 27.2278L84.6464 27.2059ZM84.7353 29.117C84.3 29.117 83.921 29.0965 83.5445 29.1214C82.9589 29.1608 82.3729 29.2137 81.792 29.2915C81.0694 29.3812 80.3711 29.6012 79.7338 29.9398C78.5409 30.5882 77.9429 31.6799 78.2876 33.204C78.4988 34.1351 79.1249 34.7156 80.0921 34.9206C80.4468 34.9921 80.8097 35.0187 81.1716 34.9999C82.9917 34.9151 84.5606 33.5591 84.7202 31.8689C84.8039 30.9817 84.7353 30.082 84.7353 29.117Z" fill="white"/>
<path d="M64.6438 21.8554H66.9766V18.303L69.7587 17.5903V21.8339H73.7275V23.8912H69.7998C69.7837 24.0807 69.7603 24.2233 69.7603 24.3655C69.7603 26.8591 69.7514 29.3527 69.766 31.8463C69.7633 32.3275 69.8126 32.8076 69.9131 33.2791C70.1336 34.2541 70.753 34.7254 71.7899 34.7383C72.2205 34.7438 72.6521 34.683 73.0832 34.6516C73.2007 34.6426 73.3182 34.6306 73.4851 34.6157C73.5278 35.2795 73.5683 35.9188 73.6125 36.6105C73.261 36.6938 72.9334 36.7956 72.597 36.8454C71.703 36.9781 70.806 37.0305 69.9126 36.826C68.5606 36.5168 67.6973 35.7123 67.3058 34.4431C67.0582 33.6397 67.0021 32.8093 67.001 31.9769C66.9969 29.4833 66.9969 26.9897 67.001 24.4961V23.9106H64.6454L64.6438 21.8554Z" fill="white"/>
<path d="M94.4928 36.6275H91.8012C91.6972 36.249 91.6483 16.0568 91.756 14.9331C92.6514 14.9052 93.5552 14.9177 94.4928 14.9272V36.6275Z" fill="white"/>
<path d="M34.7827 21.8589H37.48C37.584 22.222 37.6189 35.8994 37.519 36.6265H34.7827V21.8589Z" fill="white"/>
<path d="M59.3219 21.844H61.9864C62.0946 22.217 62.1263 35.9508 62.0234 36.6271H59.3531C59.2501 36.267 59.2132 22.6065 59.3219 21.844Z" fill="white"/>
<path d="M37.8775 17.6872C37.8717 18.6483 37.1578 19.2971 36.1094 19.2961C35.1131 19.2961 34.4012 18.5849 34.4168 17.608C34.4324 16.6544 35.1734 15.9587 36.1723 15.9622C37.1916 15.9627 37.8832 16.6619 37.8775 17.6872Z" fill="white"/>
<path d="M60.6772 15.959C61.6902 15.9685 62.4073 16.6987 62.386 17.6996C62.3662 18.6472 61.6221 19.3065 60.5852 19.2955C59.6185 19.2845 58.8899 18.5738 58.8915 17.6422C58.893 16.6812 59.6684 15.9511 60.6772 15.959Z" fill="white"/>
</g>
</g>
<defs>
<clipPath id="clip0">
<rect width="250" height="43.2961" fill="white"/>
</clipPath>
<clipPath id="clip1">
<rect width="250" height="43.2961" fill="white"/>
</clipPath>
</defs>
</svg>
